<svg xmlns="http://www.w3.org/2000/svg" version="1.1" xmlns:xlink="http://www.w3.org/1999/xlink" xmlns:svgjs="http://svgjs.com/svgjs" width="380" height="380"><svg viewBox="0 0 380 380" xmlns="http://www.w3.org/2000/svg">
    <g transform="matrix(0.10000000149011612, 0, 0, -0.10000000149011612, 115, 360)" fill="none" stroke="#0099A7" stroke-width="200px">
        <path d="M 774 2427 C 332 1983 287 1932 207 1790 C 171 1726 133 1609 114 1505 C 62 1222 197
               857 485 505 C 521 461 625 352 717 263 L 883 101 L 1292 506 C 1804 1012 1846 1061 1924
               1231 C 1985 1363 2000 1438 2000 1602 C 2000 1799 1971 1913 1873 2103 C 1759 2325 1627
               2490 1366 2742 L 1223 2879 L 774 2427 Z"></path>
    </g>
    <g transform="matrix(0.10000000149011612, 0, 0, -0.10000000149011612, 85, 330)" fill="none" stroke="#607D8B" stroke-width="200px">
        <path d="M 774 2427 C 332 1983 287 1932 207 1790 C 171 1726 133 1609 114 1505 C 62 1222 197
               857 485 505 C 521 461 625 352 717 263 L 883 101 L 1292 506 C 1804 1012 1846 1061 1924
               1231 C 1985 1363 2000 1438 2000 1602 C 2000 1799 1971 1913 1873 2103 C 1759 2325 1627
               2490 1366 2742 L 1223 2879 L 774 2427 Z"></path>
    </g>
    <g transform="matrix(0.10000000149011612, 0, 0, -0.10000000149011612, 55, 300)" fill="none" stroke="#0277BD" stroke-width="200px">
        <path d="M 774 2427 C 332 1983 287 1932 207 1790 C 171 1726 133 1609 114 1505 C 62 1222 197
               857 485 505 C 521 461 625 352 717 263 L 883 101 L 1292 506 C 1804 1012 1846 1061 1924
               1231 C 1985 1363 2000 1438 2000 1602 C 2000 1799 1971 1913 1873 2103 C 1759 2325 1627
               2490 1366 2742 L 1223 2879 L 774 2427 Z"></path>
    </g>
</svg><style>@media (prefers-color-scheme: light) { :root { filter: none; } }
@media (prefers-color-scheme: dark) { :root { filter: contrast(0.9090909090909091) brightness(1.5); } }
</style></svg>
